<svg xmlns="http://www.w3.org/2000/svg" width="130" height="20" xmlns:v="https://vecta.io/nano"><defs><linearGradient x1="50%" y1="0.215799825%" x2="50%" y2="100%" id="A"><stop stop-color="#ff514f" offset="0%"/><stop stop-color="#f55b51" offset="100%"/></linearGradient></defs><g fill-rule="evenodd"><path d="M5.431 15.497c2.35 0 4.286-1.377 5.076-3.484l-2.469-.75a2.78 2.78 0 0 1-2.607 1.702c-.81 0-1.501-.284-2.054-.871s-.83-1.296-.83-2.167.277-1.58.83-2.167 1.244-.871 2.054-.871a2.78 2.78 0 0 1 2.607 1.702l2.469-.75c-.79-2.107-2.726-3.484-5.076-3.484-1.56 0-2.844.527-3.891 1.6C.514 7.009 0 8.326 0 9.926s.514 2.917 1.541 3.991c1.047 1.053 2.331 1.58 3.891 1.58zm11.218 0c1.165 0 2.212-.385 3.121-1.134v.831h2.449V4.659H19.77v.831c-.909-.75-1.955-1.134-3.121-1.134-1.422 0-2.607.527-3.575 1.6-.948 1.053-1.422 2.37-1.422 3.97s.474 2.917 1.422 3.991a4.65 4.65 0 0 0 3.575 1.58zm.316-2.532a2.57 2.57 0 0 1-1.975-.871c-.533-.587-.79-1.296-.79-2.167s.257-1.58.79-2.167a2.57 2.57 0 0 1 1.975-.871 2.53 2.53 0 0 1 1.955.871c.533.587.81 1.296.81 2.167s-.277 1.58-.81 2.167a2.53 2.53 0 0 1-1.955.871zm9.816 6.786v-5.388c.909.75 1.936 1.134 3.101 1.134a4.65 4.65 0 0 0 3.575-1.58c.968-1.074 1.442-2.39 1.442-3.991s-.474-2.917-1.442-3.97a4.6 4.6 0 0 0-3.575-1.6c-1.165 0-2.192.385-3.101 1.134v-.831h-2.469V19.75h2.469zm2.785-6.786a2.53 2.53 0 0 1-1.955-.871c-.533-.587-.79-1.296-.79-2.167s.257-1.58.79-2.167a2.53 2.53 0 0 1 1.955-.871 2.53 2.53 0 0 1 1.955.871c.533.587.81 1.296.81 2.167s-.277 1.58-.81 2.167a2.53 2.53 0 0 1-1.955.871zm8.256-9.237c.928 0 1.58-.709 1.58-1.621a1.56 1.56 0 0 0-1.58-1.6c-.889 0-1.56.689-1.56 1.6s.672 1.621 1.56 1.621zm1.244 11.465V4.659h-2.469v10.534h2.469zm7.722 0v-2.411h-1.284c-.731 0-1.264-.547-1.264-1.276V6.867h2.548V4.659H44.24V2.593h-2.469v2.066h-1.462v2.208h1.462v5.003c0 .952.336 1.742 1.007 2.37s1.501.952 2.489.952h1.521zm6.142.304c1.165 0 2.212-.385 3.121-1.134v.831H58.5V4.659h-2.449v.831c-.909-.75-1.955-1.134-3.121-1.134-1.422 0-2.607.527-3.575 1.6-.948 1.053-1.422 2.37-1.422 3.97s.474 2.917 1.422 3.991a4.65 4.65 0 0 0 3.575 1.58zm.316-2.532a2.57 2.57 0 0 1-1.975-.871c-.533-.587-.79-1.296-.79-2.167s.257-1.58.79-2.167a2.57 2.57 0 0 1 1.975-.871 2.53 2.53 0 0 1 1.955.871c.533.587.81 1.296.81 2.167s-.277 1.58-.81 2.167a2.53 2.53 0 0 1-1.955.871zm9.816 2.228V0h-2.469v15.193h2.469zm29.785.304a4.65 4.65 0 0 0 3.575-1.58c.968-1.074 1.442-2.39 1.442-3.991s-.474-2.917-1.442-3.97a4.6 4.6 0 0 0-3.575-1.6c-1.165 0-2.192.385-3.101 1.134V0h-2.469v15.193h2.469v-.831c.909.75 1.936 1.134 3.101 1.134zm-.316-2.532a2.53 2.53 0 0 1-1.955-.871c-.533-.587-.79-1.296-.79-2.167s.257-1.58.79-2.167a2.53 2.53 0 0 1 1.955-.871 2.53 2.53 0 0 1 1.955.871c.533.587.81 1.296.81 2.167s-.277 1.58-.81 2.167a2.53 2.53 0 0 1-1.955.871zm12.206 2.532c2.074 0 3.851-1.053 4.799-2.735l-2.39-.709c-.593.75-1.402 1.114-2.41 1.114a3.07 3.07 0 0 1-3.002-2.309h8.157a6.54 6.54 0 0 0 .079-.932c0-1.58-.514-2.897-1.56-3.97-1.027-1.074-2.311-1.6-3.832-1.6s-2.805.527-3.851 1.6c-1.027 1.053-1.541 2.37-1.541 3.97s.533 2.917 1.58 3.991c1.067 1.053 2.39 1.58 3.97 1.58zm2.686-6.604h-5.668c.375-1.317 1.501-2.208 2.785-2.208 1.343 0 2.489.891 2.884 2.208zm8.69 6.604c1.165 0 2.212-.385 3.121-1.134v.831h2.449V4.659h-2.449v.831c-.909-.75-1.955-1.134-3.121-1.134-1.422 0-2.607.527-3.575 1.6-.948 1.053-1.422 2.37-1.422 3.97s.474 2.917 1.422 3.991a4.65 4.65 0 0 0 3.575 1.58zm.316-2.532a2.57 2.57 0 0 1-1.975-.871c-.533-.587-.79-1.296-.79-2.167s.257-1.58.79-2.167a2.57 2.57 0 0 1 1.975-.871 2.53 2.53 0 0 1 1.955.871c.533.587.81 1.296.81 2.167s-.277 1.58-.81 2.167a2.53 2.53 0 0 1-1.955.871zm9.816 2.228V9.399c0-1.398 1.007-2.451 2.37-2.451a2.44 2.44 0 0 1 1.007.223V4.355c-1.541 0-2.666.527-3.377 1.6V4.659h-2.469v10.534h2.469z" fill="#000" fill-rule="nonzero"/><path d="M80.454 8.921l-2.185 3.344a3.48 3.48 0 0 1-1.048 1.037c-.565.361-1.217.551-1.885.551h0a3.52 3.52 0 0 1-.732-.077 3.48 3.48 0 0 1-2.205-1.511l-2.185-3.344-1.647 2.52a2.41 2.41 0 0 0 .327 3.039c.445.44 1.06.712 1.74.712h9.4a2.48 2.48 0 0 0 1.335-.389c.571-.364.938-.923 1.071-1.531a2.4 2.4 0 0 0-.339-1.831l-1.647-2.52z" fill="#9e50ee"/><path d="M6.643 12.003c.616.131 1.282.03 1.853-.335a2.45 2.45 0 0 0 .732-.723l4.7-7.193a2.4 2.4 0 0 0 .339-1.831c-.133-.608-.5-1.167-1.071-1.531A2.48 2.48 0 0 0 11.861 0H2.461C1.781 0 1.166.272.721.712A2.41 2.41 0 0 0 0 2.432a2.41 2.41 0 0 0 .394 1.319l4.7 7.193c.369.564.934.927 1.549 1.058" fill="url(#A)" transform="translate(68.173 .145)"/></g></svg>