<svg viewBox="0 0 160.92 24" xmlns="http://www.w3.org/2000/svg">
  <svg x="0" y="0" width="78.11" height="23.8" viewBox="0 0 78.1145 23.8027" preserveAspectRatio="none"><path id="capital" d="M6.72768 18.6759C9.63893 18.6759 12.0364 17.0158 13.015 14.4769L9.95697 13.5736C9.39429 14.8431 8.17107 15.6243 6.72768 15.6243C5.72464 15.6243 4.86839 15.2825 4.18339 14.5746C3.49839 13.8666 3.15589 13.0121 3.15589 11.9624C3.15589 10.9126 3.49839 10.0581 4.18339 9.35017C4.86839 8.6422 5.72464 8.30041 6.72768 8.30041C8.17107 8.30041 9.39429 9.08163 9.95697 10.3511L13.015 9.44782C12.0364 6.90887 9.63893 5.24879 6.72768 5.24879C4.795 5.24879 3.20482 5.88353 1.90821 7.17742C0.636071 8.44689 0 10.0337 0 11.9624C0 13.891 0.636071 15.4778 1.90821 16.7717C3.20482 18.0412 4.795 18.6759 6.72768 18.6759ZM20.6234 18.6759C22.0668 18.6759 23.3634 18.2121 24.4888 17.3088V18.3097H27.5223V5.61499H24.4888V6.61592C23.3634 5.71264 22.0668 5.24879 20.6234 5.24879C18.862 5.24879 17.3941 5.88353 16.1954 7.17742C15.0211 8.44689 14.4339 10.0337 14.4339 11.9624C14.4339 13.891 15.0211 15.4778 16.1954 16.7717C17.3941 18.0412 18.862 18.6759 20.6234 18.6759ZM21.0148 15.6243C20.0607 15.6243 19.2289 15.2825 18.5684 14.5746C17.9079 13.8666 17.5898 13.0121 17.5898 11.9624C17.5898 10.9126 17.9079 10.0581 18.5684 9.35017C19.2289 8.6422 20.0607 8.30041 21.0148 8.30041C21.9689 8.30041 22.7763 8.6422 23.4368 9.35017C24.0973 10.0581 24.4398 10.9126 24.4398 11.9624C24.4398 13.0121 24.0973 13.8666 23.4368 14.5746C22.7763 15.2825 21.9689 15.6243 21.0148 15.6243ZM33.1736 23.8027V17.3088C34.2989 18.2121 35.5711 18.6759 37.0145 18.6759C38.7759 18.6759 40.2438 18.0412 41.4425 16.7717C42.6413 15.4778 43.2284 13.891 43.2284 11.9624C43.2284 10.0337 42.6413 8.44689 41.4425 7.17742C40.2438 5.88353 38.7759 5.24879 37.0145 5.24879C35.5711 5.24879 34.2989 5.71264 33.1736 6.61592V5.61499H30.1155V23.8027H33.1736ZM36.623 15.6243C35.6689 15.6243 34.8616 15.2825 34.2011 14.5746C33.5405 13.8666 33.2225 13.0121 33.2225 11.9624C33.2225 10.9126 33.5405 10.0581 34.2011 9.35017C34.8616 8.6422 35.6689 8.30041 36.623 8.30041C37.5771 8.30041 38.3845 8.6422 39.045 9.35017C39.7055 10.0581 40.048 10.9126 40.048 11.9624C40.048 13.0121 39.7055 13.8666 39.045 14.5746C38.3845 15.2825 37.5771 15.6243 36.623 15.6243ZM46.8491 4.49199C47.9989 4.49199 48.8063 3.63753 48.8063 2.53895C48.8063 1.44037 47.95 0.610325 46.8491 0.610325C45.7482 0.610325 44.9164 1.44037 44.9164 2.53895C44.9164 3.63753 45.7482 4.49199 46.8491 4.49199ZM48.3904 18.3097V5.61499H45.3323V18.3097H48.3904ZM57.9559 18.3097V15.4046H56.3657C55.4605 15.4046 54.8 14.7454 54.8 13.8666V8.276H57.9559V5.61499H54.8V3.12486H51.742V5.61499H49.9316V8.276H51.742V14.306C51.742 15.4534 52.1579 16.4055 52.9896 17.1623C53.8214 17.9191 54.8489 18.3097 56.0721 18.3097H57.9559ZM65.5643 18.6759C67.0077 18.6759 68.3043 18.2121 69.4297 17.3088V18.3097H72.4632V5.61499H69.4297V6.61592C68.3043 5.71264 67.0077 5.24879 65.5643 5.24879C63.8029 5.24879 62.335 5.88353 61.1363 7.17742C59.962 8.44689 59.3748 10.0337 59.3748 11.9624C59.3748 13.891 59.962 15.4778 61.1363 16.7717C62.335 18.0412 63.8029 18.6759 65.5643 18.6759ZM65.9557 15.6243C65.0016 15.6243 64.1698 15.2825 63.5093 14.5746C62.8488 13.8666 62.5307 13.0121 62.5307 11.9624C62.5307 10.9126 62.8488 10.0581 63.5093 9.35017C64.1698 8.6422 65.0016 8.30041 65.9557 8.30041C66.9098 8.30041 67.7171 8.6422 68.3777 9.35017C69.0382 10.0581 69.3807 10.9126 69.3807 11.9624C69.3807 13.0121 69.0382 13.8666 68.3777 14.5746C67.7171 15.2825 66.9098 15.6243 65.9557 15.6243ZM78.1145 18.3097V0H75.0564V18.3097H78.1145Z" fill="#FBFAFE"/></svg>
  <svg x="108.42" y="0" width="52.45" height="18.67" viewBox="0 0 52.4514 18.6759" preserveAspectRatio="none"><path id="bear" d="M6.89893 18.6759C8.66036 18.6759 10.1282 18.0412 11.327 16.7717C12.5257 15.4778 13.1129 13.891 13.1129 11.9624C13.1129 10.0337 12.5257 8.44689 11.327 7.17742C10.1282 5.88353 8.66036 5.24879 6.89893 5.24879C5.45554 5.24879 4.18339 5.71264 3.05804 6.61592V0H0V18.3097H3.05804V17.3088C4.18339 18.2121 5.45554 18.6759 6.89893 18.6759ZM6.5075 15.6243C5.55339 15.6243 4.74607 15.2825 4.08554 14.5746C3.425 13.8666 3.10696 13.0121 3.10696 11.9624C3.10696 10.9126 3.425 10.0582 4.08554 9.35017C4.74607 8.6422 5.55339 8.30042 6.5075 8.30042C7.46161 8.30042 8.26893 8.6422 8.92947 9.35017C9.59 10.0582 9.9325 10.9126 9.9325 11.9624C9.9325 13.0121 9.59 13.8666 8.92947 14.5746C8.26893 15.2825 7.46161 15.6243 6.5075 15.6243ZM21.6264 18.6759C24.1952 18.6759 26.397 17.4065 27.5713 15.3802L24.6111 14.5257C23.8771 15.429 22.8741 15.8684 21.6264 15.8684C19.8405 15.8684 18.3727 14.7454 17.9079 13.0854H28.0116C28.085 12.5971 28.1095 12.2309 28.1095 11.9624C28.1095 10.0582 27.4734 8.47131 26.1768 7.17742C24.9046 5.88353 23.3145 5.24879 21.4307 5.24879C19.547 5.24879 17.9568 5.88353 16.6602 7.17742C15.388 8.44689 14.752 10.0337 14.752 11.9624C14.752 13.891 15.4125 15.4778 16.7091 16.7717C18.0302 18.0412 19.6693 18.6759 21.6264 18.6759ZM24.9536 10.7173H17.9323C18.3971 9.13046 19.7916 8.05629 21.3818 8.05629C23.0454 8.05629 24.4643 9.13046 24.9536 10.7173ZM35.7179 18.6759C37.1613 18.6759 38.4579 18.2121 39.5832 17.3088V18.3097H42.6168V5.61499H39.5832V6.61592C38.4579 5.71264 37.1613 5.24879 35.7179 5.24879C33.9564 5.24879 32.4886 5.88353 31.2898 7.17742C30.1155 8.44689 29.5284 10.0337 29.5284 11.9624C29.5284 13.891 30.1155 15.4778 31.2898 16.7717C32.4886 18.0412 33.9564 18.6759 35.7179 18.6759ZM36.1093 15.6243C35.1552 15.6243 34.3234 15.2825 33.6629 14.5746C33.0023 13.8666 32.6843 13.0121 32.6843 11.9624C32.6843 10.9126 33.0023 10.0582 33.6629 9.35017C34.3234 8.6422 35.1552 8.30042 36.1093 8.30042C37.0634 8.30042 37.8707 8.6422 38.5313 9.35017C39.1918 10.0582 39.5343 10.9126 39.5343 11.9624C39.5343 13.0121 39.1918 13.8666 38.5313 14.5746C37.8707 15.2825 37.0634 15.6243 36.1093 15.6243ZM48.268 18.3097V11.3276C48.268 9.64313 49.5157 8.37365 51.2038 8.37365C51.6441 8.37365 52.06 8.47131 52.4514 8.6422V5.24879C50.5432 5.24879 49.1488 5.88353 48.268 7.17742V5.61499H45.21V18.3097H48.268Z" fill="#FBFAFE"/></svg>
  <svg x="84.14" y="0" width="18.41" height="14.71" viewBox="0 0 17.9448 14.7088" preserveAspectRatio="none"><path id="Fill 4" fill-rule="evenodd" clip-rule="evenodd" d="M8.32358 14.642C9.09494 14.8018 9.92964 14.6783 10.6449 14.2338C11.0121 14.0054 11.3249 13.7047 11.5622 13.3512L17.4513 4.57636C17.9131 3.88816 18.0414 3.0849 17.8755 2.3426C17.7094 1.60047 17.2493 0.918966 16.5341 0.4746C16.0355 0.164737 15.4547 0 14.8614 0H3.08298C2.23176 0 1.46089 0.332089 0.902947 0.86912C0.345009 1.40599 0 2.14763 0 2.96691C0 3.53793 0.171195 4.09686 0.493127 4.57636L6.38233 13.3512C6.8442 14.0393 7.55222 14.4822 8.32358 14.642Z" fill="#F8524F"/></svg>
  <svg x="84.14" y="10.68" width="18.41" height="7.65" viewBox="0 0 17.9449 7.65081" preserveAspectRatio="none"><path id="Fill 1" fill-rule="evenodd" clip-rule="evenodd" d="M15.3879 0L12.6499 4.07954C12.3072 4.59009 11.8655 5.01566 11.3367 5.34416C10.629 5.78411 9.81229 6.01651 8.97514 6.01651H8.97497C8.66744 6.01651 8.35893 5.98496 8.05779 5.92253C6.91474 5.68589 5.93356 5.03135 5.29477 4.07954L2.5568 0L0.49329 3.07444C0.171195 3.55411 0 4.11304 0 4.68406C0 5.50334 0.345172 6.24498 0.903111 6.78185C1.46105 7.31872 2.23175 7.65081 3.08315 7.65081H14.8614C15.4547 7.65081 16.0355 7.48623 16.5341 7.17621C17.2493 6.73184 17.7095 6.05034 17.8755 5.3082C18.0416 4.5659 17.9133 3.76265 17.4513 3.07444L15.3879 0Z" fill="#9E50EE"/></svg>
</svg>