<svg viewBox="0 0 159 32" xmlns="http://www.w3.org/2000/svg">
  <svg x="0" y="3.2" width="24.31" height="22.15" viewBox="0 0 24.3152 22.1538" preserveAspectRatio="none"><g id="symbol" clip-path="url(#clip0_0_9)">
<path id="bg" d="M0 9.42424C0 7.94699 0.814193 6.59 2.11765 5.89483L10.2752 1.54411C11.4517 0.91666 12.8635 0.91666 14.0399 1.54411L22.1975 5.89483C23.501 6.59 24.3152 7.94699 24.3152 9.42424V17.6134C24.3152 19.8225 22.5243 21.6134 20.3152 21.6134H4C1.79086 21.6134 0 19.8225 0 17.6134V9.42424Z" fill="#76ADFF"/>
<g id="fg">
<path d="M10.536 7.72461C10.536 7.33801 10.8494 7.02461 11.236 7.02461H13.0781C13.4647 7.02461 13.7781 7.33801 13.7781 7.72461V16.8612C13.7781 17.2478 13.4647 17.5612 13.0781 17.5612H11.236C10.8494 17.5612 10.536 17.2478 10.536 16.8612V7.72461Z" fill="black"/>
<path d="M4.8625 11.7771C4.8625 11.3905 5.1759 11.0771 5.5625 11.0771H7.40453C7.79113 11.0771 8.10453 11.3905 8.10453 11.7771V16.8612C8.10453 17.2478 7.79113 17.5612 7.40453 17.5612H5.5625C5.1759 17.5612 4.8625 17.2478 4.8625 16.8612V11.7771Z" fill="black"/>
<path d="M19.4516 11.7771C19.4516 11.3905 19.1382 11.0771 18.7516 11.0771H16.9096C16.523 11.0771 16.2096 11.3905 16.2096 11.7771V16.8612C16.2096 17.2478 16.523 17.5612 16.9096 17.5612H18.7516C19.1382 17.5612 19.4516 17.2478 19.4516 16.8612V11.7771Z" fill="black"/>
</g>
</g>
<defs>
<clipPath id="clip0_0_9">
<rect width="24.3152" height="22.1538" fill="white"/>
</clipPath>
</defs></svg>
  <svg x="27.55" y="3.74" width="131.03" height="21.61" viewBox="0 0 131.032 21.6135" preserveAspectRatio="none"><g id="text">
<g id="Union">
<path d="M2.91406 12.1989C2.91406 17.2739 6.94345 21.3798 12.5285 21.3798C16.9659 21.3798 21.1228 18.753 21.8369 14.0606H18.5216C17.782 16.9934 15.1552 18.396 12.5795 18.396C9.00915 18.396 6.22938 15.7692 6.22938 12.1224C6.22938 8.52655 8.98364 5.8998 12.554 5.8998C14.9767 5.8998 17.68 7.09842 18.5216 10.2352H21.8369C21.0973 5.74679 16.9914 2.91602 12.554 2.91602C6.94345 2.91602 2.91406 7.02191 2.91406 12.1989Z" fill="white"/>
<path d="M62.3337 3.24225V6.22897H70.309V21.0738H73.6262V6.22897H81.5991V3.24225H62.3337Z" fill="white"/>
<path fill-rule="evenodd" clip-rule="evenodd" d="M112.948 10.9493V3.24225H116.061V21.0738H112.948V18.447H112.693C112.182 20.0027 110.753 21.3798 108.304 21.3798C104.731 21.3798 102.205 18.396 102.205 14.6726C102.205 11.0003 104.68 8.01651 108.202 8.01651C110.677 8.01651 112.182 9.39364 112.693 10.9493H112.948ZM105.318 14.6981C105.318 16.8914 107.028 18.651 109.12 18.651C111.238 18.651 112.948 16.8914 112.948 14.6981C112.948 12.5049 111.238 10.7453 109.12 10.7453C107.028 10.7453 105.318 12.5049 105.318 14.6981Z" fill="white"/>
<path fill-rule="evenodd" clip-rule="evenodd" d="M124.185 21.4053C119.847 21.4053 117.296 18.396 117.296 14.6727C117.296 11.0258 120.026 8.01652 124.083 8.01652C128.268 8.01652 130.82 11.2553 130.82 15.5907H120.511C120.715 17.2994 122.016 18.651 124.211 18.651C125.538 18.651 126.839 18.141 127.426 16.8659H130.565C130.131 19.3651 127.732 21.4053 124.185 21.4053ZM120.638 13.3465H127.4C127.145 11.8929 125.767 10.7708 124.007 10.7708C122.246 10.7708 120.894 11.8929 120.638 13.3465Z" fill="white"/>
<path fill-rule="evenodd" clip-rule="evenodd" d="M97.8575 8.32255V10.9493H97.6023C97.092 9.26614 95.3823 8.01652 93.0858 8.01652C89.59 8.01652 87.1148 11.0003 87.1148 14.6727C87.1148 18.396 89.641 21.3798 93.1624 21.3798C95.4589 21.3798 97.092 20.1302 97.6023 18.447H97.8575V21.0738H100.971V8.32255H97.8575ZM94.0299 18.651C91.9375 18.651 90.2279 16.8914 90.2279 14.6982C90.2279 12.5049 91.9375 10.7453 94.0299 10.7453C96.1478 10.7453 97.8575 12.5049 97.8575 14.6982C97.8575 16.8914 96.1478 18.651 94.0299 18.651Z" fill="white"/>
<path d="M78.4868 8.32253H81.5998V10.1077H81.855C82.1102 9.08761 82.6205 8.32253 84.5343 8.32253H86.7032V11.0003H84.2791C82.6205 11.0003 81.5998 11.8674 81.5998 14.2901V21.0738H78.4868V8.32253Z" fill="white"/>
<path fill-rule="evenodd" clip-rule="evenodd" d="M62.3353 10.9493V8.32255H65.4484V21.0738H62.3353V18.447H62.0801C61.5698 20.1302 59.9367 21.3798 57.6402 21.3798C54.1188 21.3798 51.5926 18.396 51.5926 14.6727C51.5926 11.0003 54.0678 8.01652 57.5636 8.01652C59.8601 8.01652 61.5698 9.26614 62.0801 10.9493H62.3353ZM54.7057 14.6982C54.7057 16.8914 56.4154 18.651 58.5077 18.651C60.6257 18.651 62.3353 16.8914 62.3353 14.6982C62.3353 12.5049 60.6257 10.7453 58.5077 10.7453C56.4154 10.7453 54.7057 12.5049 54.7057 14.6982Z" fill="white"/>
<path d="M41.1811 16.9679H38.0698C38.3248 19.3906 39.9315 21.3798 44.7259 21.3798C48.7043 21.3798 50.77 20.0282 50.77 17.5289C50.77 15.1062 48.8063 14.2901 46.5366 13.8056L44.3689 13.321C42.7367 12.964 41.6911 12.6835 41.6911 11.8674C41.6911 11.1533 42.4817 10.4392 44.1649 10.4392C45.7715 10.4392 46.8936 11.0513 47.1487 12.4029H50.26C50.0049 9.9802 48.5768 8.01652 44.1394 8.01652C40.569 8.01652 38.5798 9.59767 38.5798 11.8929C38.5798 14.2391 40.314 14.9787 42.5582 15.4632L45.338 16.1008C46.9446 16.4578 47.6587 16.8659 47.6587 17.5799C47.6587 18.3195 46.8936 18.9316 44.7259 18.9316C42.9918 18.9316 41.4361 18.4215 41.1811 16.9679Z" fill="white"/>
<path fill-rule="evenodd" clip-rule="evenodd" d="M33.6458 10.9493V8.32255H36.7571V21.0738H33.6458V18.447H33.3908C32.8808 20.1302 31.2486 21.3798 28.9534 21.3798C25.434 21.3798 22.9093 18.396 22.9093 14.6727C22.9093 11.0003 25.383 8.01652 28.8769 8.01652C31.1721 8.01652 32.8808 9.26614 33.3908 10.9493H33.6458ZM26.0206 14.6982C26.0206 16.8914 27.7293 18.651 29.8205 18.651C31.9372 18.651 33.6458 16.8914 33.6458 14.6982C33.6458 12.5049 31.9372 10.7453 29.8205 10.7453C27.7293 10.7453 26.0206 12.5049 26.0206 14.6982Z" fill="white"/>
</g>
</g></svg>
</svg>