<svg viewBox="0 0 133.82 32" xmlns="http://www.w3.org/2000/svg">
  <svg x="0" y="0" width="32" height="32" viewBox="0 0 32 32" preserveAspectRatio="none"><path id="Union" d="M17.4541 32H14.5459V26.1816H17.4541V32ZM9.8291 24.2275L5.71484 28.3418L3.6582 26.2852L7.77148 22.1709L9.8291 24.2275ZM28.3418 26.2852L26.2852 28.3418L22.1709 24.2275L24.2285 22.1709L28.3418 26.2852ZM16 18.0576L11.8857 22.1709L9.8291 20.1143L13.9434 16L16 18.0576ZM22.1709 20.1143L20.1143 22.1709L16 18.0576L18.0566 16L22.1709 20.1143ZM5.81836 17.4541H0V14.5459H5.81836V17.4541ZM32 17.4541H26.1816V14.5459H32V17.4541ZM16 13.9434L13.9434 16L9.8291 11.8857L11.8857 9.8291L16 13.9434ZM22.1709 11.8857L18.0566 16L16 13.9434L20.1143 9.8291L22.1709 11.8857ZM9.8291 7.77148L7.77246 9.8291L3.6582 5.71484L5.71484 3.6582L9.8291 7.77148ZM28.3418 5.71484L24.2285 9.8291L22.1709 7.77148L26.2852 3.6582L28.3418 5.71484ZM17.4541 5.81836H14.5459V0H17.4541V5.81836Z" fill="#419AFE"/></svg>
  <svg x="42.66" y="8.74" width="91.15" height="14.85" viewBox="0 0 91.1514 14.8506" preserveAspectRatio="none"><path id="Union" d="M55.5664 3.79395C60.4149 3.79402 62.8896 6.03577 62.8896 9.32227C62.8896 12.5884 60.4148 14.8505 55.5664 14.8506C50.7178 14.8506 48.2423 12.5884 48.2422 9.32227C48.2422 6.03571 50.7177 3.79395 55.5664 3.79395ZM85.3594 3.79395C89.8731 3.79395 91.1513 5.2645 91.1514 8.10449V14.5459H87.8145V13.1768C87.2261 14.1404 86.1 14.7891 83.7568 14.7891C80.7544 14.7891 78.4318 13.8665 78.4316 11.3916C78.4316 7.95295 82.2961 7.44585 87.8242 7.85156C87.8242 6.92849 87.4994 6.24902 85.1562 6.24902C83.7871 6.24907 82.661 6.43109 81.8496 6.60352C81.373 6.70492 80.9572 6.81642 80.582 6.94824L79.4258 4.82812C79.8517 4.63545 80.3591 4.46364 80.9473 4.31152C81.9616 4.05795 83.4119 3.79397 85.3594 3.79395ZM14.1602 2.93164H3.37793V5.78223H13.7246V8.6123H3.37793V11.6143H14.2617V14.5459H0V0H14.1602V2.93164ZM23.8506 7.10059L26.7617 4.09766H30.8896L26.041 9.07812L31.458 14.5459H27.3291L23.8506 11.0361L20.3711 14.5459H16.2422L21.6592 9.07812L16.8105 4.09766H20.9385L23.8506 7.10059ZM40.5859 3.79395C44.846 3.79409 46.3975 6.21827 46.3975 9.53516V14.5459H43.0703V9.53516C43.0703 7.80059 42.3501 6.34961 39.9258 6.34961C37.5018 6.34978 36.7812 7.80069 36.7812 9.53516V14.5459H33.4541V4.09766H36.7812V5.50781C37.3797 4.58474 38.5065 3.79395 40.5859 3.79395ZM70.5967 11.1787L74.4102 4.09766H77.9199L72.2598 14.5459H68.9326L63.2725 4.09766H66.7822L70.5967 11.1787ZM55.5664 6.34961C52.6957 6.34961 51.5693 7.60798 51.5693 9.32227C51.5694 11.0365 52.6958 12.2939 55.5664 12.2939C58.4368 12.2939 59.5624 11.0364 59.5625 9.32227C59.5625 7.60803 58.4369 6.34968 55.5664 6.34961ZM87.8145 9.69727C84.2643 9.58569 81.759 9.61627 81.7588 11.0869C81.7588 11.7868 82.3976 12.2334 84.5684 12.2334C86.8809 12.2334 87.8143 11.4017 87.8145 10.499V9.69727Z" fill="white"/></svg>
</svg>