<svg viewBox="0 0 139.89 32" xmlns="http://www.w3.org/2000/svg">
  <svg x="0" y="0" width="32" height="32" viewBox="0 0 32 32" preserveAspectRatio="none"><g id="Grafema">
<path id="Shape" d="M0 13.35C0 8.67706 0 6.34059 0.909414 4.55577C1.70936 2.98579 2.98579 1.70936 4.55577 0.909414C6.34059 0 8.67706 0 13.35 0H18.65C23.3229 0 25.6594 0 27.4442 0.909414C29.0142 1.70936 30.2906 2.98579 31.0906 4.55577C32 6.34059 32 8.67706 32 13.35V18.65C32 23.3229 32 25.6594 31.0906 27.4442C30.2906 29.0142 29.0142 30.2906 27.4442 31.0906C25.6594 32 23.3229 32 18.65 32H13.35C8.67706 32 6.34059 32 4.55577 31.0906C2.98579 30.2906 1.70936 29.0142 0.909414 27.4442C0 25.6594 0 23.3229 0 18.65V13.35Z" fill="#FF5500"/>
<g id="Vector">
<path fill-rule="evenodd" clip-rule="evenodd" d="M21.6543 9.25C23.1961 9.25 23.9671 9.25002 24.556 9.5489C25.074 9.8118 25.4951 10.2313 25.7591 10.7473C26.0591 11.3339 26.0592 12.1017 26.0592 13.6375V18.7C26.0592 18.9363 26.0592 19.0544 26.013 19.1446C25.9724 19.224 25.9076 19.2886 25.8279 19.329C25.7373 19.375 25.6187 19.375 25.3815 19.375H25.2039C24.8242 19.375 24.6343 19.375 24.5723 19.4371C24.5187 19.4907 24.4981 19.5687 24.5181 19.6416C24.5413 19.7262 24.7064 19.8195 25.0366 20.0061L26.5629 20.8685C26.688 20.9391 26.7505 20.9745 26.796 21.0242C26.8362 21.0683 26.8666 21.1203 26.8852 21.1769C26.9062 21.2409 26.9062 21.3125 26.9062 21.4556V22.0739C26.9062 22.3102 26.9062 22.4283 26.8601 22.5186C26.8195 22.5979 26.7547 22.6625 26.675 22.7029C26.5844 22.7489 26.4658 22.749 26.2286 22.749L15.2168 22.7497C13.6748 22.7498 12.9038 22.7499 12.3149 22.451C11.7968 22.1881 11.3756 21.7686 11.1117 21.2526C10.8116 20.666 10.8116 19.898 10.8116 18.3622V13.6375C10.8116 12.1017 10.8116 11.3339 11.1117 10.7473C11.3756 10.2313 11.7968 9.8118 12.3148 9.5489C12.9037 9.25002 13.6746 9.25 15.2165 9.25H21.6543ZM13.9882 11.7813C13.6373 11.7813 13.3529 12.0646 13.3529 12.4141V19.5862C13.3529 19.9357 13.6373 20.219 13.9882 20.219H21.7993C22.3892 20.219 22.6606 19.4877 22.2125 19.1055L18.8881 16.2699C18.44 15.8876 18.7114 15.1564 19.3013 15.1564H22.8826C23.2335 15.1564 23.5179 14.8731 23.5179 14.5236V12.4141C23.5179 12.0646 23.2335 11.7813 22.8826 11.7813H13.9882Z" fill="white"/>
<path d="M5.09375 9.67187C5.09375 9.43888 5.28338 9.25 5.51729 9.25L8.90564 9.25C9.13956 9.25 9.32919 9.43888 9.32919 9.67187V11.3627C9.32919 11.5026 9.25959 11.6334 9.14337 11.7119L6.08624 13.7769C5.95129 13.8681 5.87048 14.0199 5.87048 14.1824C5.87048 14.4529 6.09066 14.6722 6.36226 14.6722H8.90564C9.13956 14.6722 9.32919 14.8611 9.32919 15.0941V22.3281C9.32919 22.5611 9.13956 22.75 8.90564 22.75H5.51729C5.28338 22.75 5.09375 22.5611 5.09375 22.3281V9.67187Z" fill="white"/>
</g>
</g></svg>
  <svg x="39.31" y="5.94" width="100.58" height="20.12" viewBox="0 0 100.571 20.1143" preserveAspectRatio="none"><g id="Text">
<g id="iqbroker">
<path d="M0.0882636 14.8893V4.77321H3.29517V14.8893H0.0882636ZM0 1.7875C0 0.854464 0.755144 0.0982143 1.68681 0.0982143C2.61849 0.0982143 3.37363 0.854464 3.37363 1.7875C3.37363 2.72054 2.61849 3.47679 1.68681 3.47679C0.755144 3.47679 0 2.72054 0 1.7875Z" fill="white"/>
<path d="M5.1389 9.83125C5.1389 6.15804 7.87507 4.47857 11.2781 4.47857C12.9453 4.47857 14.5831 4.97946 15.5736 6.40357V4.77321H18.7903V20.1143H15.5736V13.2589C14.5831 14.683 12.9453 15.1839 11.2781 15.1839C7.87507 15.1839 5.1389 13.5045 5.1389 9.83125ZM11.9646 6.95357C10.0424 6.95357 8.35562 7.66071 8.35562 9.83125C8.35562 12.0018 10.0424 12.7089 11.9646 12.7089C13.8868 12.7089 15.5736 12.0018 15.5736 9.83125C15.5736 7.66071 13.8868 6.95357 11.9646 6.95357Z" fill="white"/>
<path d="M20.9479 14.8893V0H24.1646V6.40357C25.1551 4.97946 26.7929 4.47857 28.4601 4.47857C31.8631 4.47857 34.5993 6.15804 34.5993 9.83125C34.5993 13.5045 31.8631 15.1839 28.4601 15.1839C26.7929 15.1839 25.1551 14.683 24.1646 13.2589V14.8893H20.9479ZM27.7736 6.95357C25.8514 6.95357 24.1646 7.66071 24.1646 9.83125C24.1646 12.0018 25.8514 12.7089 27.7736 12.7089C29.6958 12.7089 31.3826 12.0018 31.3826 9.83125C31.3826 7.66071 29.6958 6.95357 27.7736 6.95357Z" fill="white"/>
<path d="M36.3646 4.77321H39.5813V6.13839C40.4149 4.87143 41.8173 4.47857 43.259 4.47857C44.1416 4.47857 45.7009 4.61607 46.4561 5.15625L45.0929 7.44464C44.3377 7.06161 43.4551 6.95357 42.6215 6.95357C40.5816 6.95357 39.5813 8.03393 39.5813 10.0375V14.8893H36.3646V4.77321Z" fill="white"/>
<path d="M46.7601 9.83125C46.7601 5.80446 50.3789 4.47857 53.8408 4.47857C57.3027 4.47857 60.9215 5.80446 60.9215 9.83125C60.9215 13.858 57.2929 15.1839 53.8408 15.1839C50.3887 15.1839 46.7601 13.858 46.7601 9.83125ZM53.8408 6.95357C51.9088 6.95357 49.9768 7.57232 49.9768 9.83125C49.9768 12.0902 51.9088 12.7089 53.8408 12.7089C55.7728 12.7089 57.7048 12.0902 57.7048 9.83125C57.7048 7.57232 55.7728 6.95357 53.8408 6.95357Z" fill="white"/>
<path d="M62.6867 0H65.9035V8.54464L70.856 4.77321H75.1809L69.7184 8.92768L75.1809 14.8893H71.3758L67.4824 10.6268L65.9035 11.825V14.8893H62.6867V0Z" fill="white"/>
<path d="M75.7498 9.83125C75.7498 6.04018 78.937 4.47857 82.3205 4.47857C86.2629 4.47857 88.7049 6.44286 88.7049 10.5187C88.7049 10.6857 88.7049 10.8527 88.6951 11.0196H79.094C79.2901 12.3946 81.0554 12.8071 82.5166 12.8071C83.8602 12.8071 85.3313 12.542 86.5571 11.9723L87.9988 13.8973C86.5473 14.9875 84.2721 15.1839 82.5166 15.1839C78.9567 15.1839 75.7498 13.8482 75.7498 9.83125ZM82.3205 6.85536C80.7415 6.85536 79.2999 7.53304 79.1038 8.9375H85.5372C85.3411 7.53304 83.8994 6.85536 82.3205 6.85536Z" fill="white"/>
<path d="M90.48 4.77321H93.6967V6.13839C94.5303 4.87143 95.9327 4.47857 97.3743 4.47857C98.257 4.47857 99.8163 4.61607 100.571 5.15625L99.2082 7.44464C98.4531 7.06161 97.5705 6.95357 96.7369 6.95357C94.697 6.95357 93.6967 8.03393 93.6967 10.0375V14.8893H90.48V4.77321Z" fill="white"/>
</g>
</g></svg>
</svg>