<svg viewBox="0 0 133.79 28" xmlns="http://www.w3.org/2000/svg">
  <svg x="0" y="0" width="28" height="28" viewBox="0 0 28 28" preserveAspectRatio="none"><path id="Oval" fill-rule="evenodd" clip-rule="evenodd" d="M14 28C6.26801 28 0 21.732 0 14C0 6.26801 6.26801 0 14 0C21.732 0 28 6.26801 28 14C28 21.732 21.732 28 14 28Z" fill="#FE7A20"/></svg>
  <svg x="11.77" y="8.59" width="3.5" height="13.04" viewBox="0 0 3.5 13.0455" preserveAspectRatio="none"><path id="Rectangle" fill-rule="evenodd" clip-rule="evenodd" d="M0 1.73939V11.3061C0 12.2667 0.783502 13.0455 1.75 13.0455C2.7165 13.0455 3.5 12.2667 3.5 11.3061V1.73939C3.5 0.778754 2.7165 0 1.75 0C0.783502 0 0 0.778754 0 1.73939Z" fill="white"/></svg>
  <svg x="6.05" y="11.77" width="3.5" height="9.86" viewBox="0 0 3.5 9.86364" preserveAspectRatio="none"><path id="Rectangle" fill-rule="evenodd" clip-rule="evenodd" d="M0 1.75354V8.1101C0 9.07855 0.783502 9.86364 1.75 9.86364C2.7165 9.86364 3.5 9.07855 3.5 8.1101V1.75354C3.5 0.785085 2.7165 0 1.75 0C0.783502 0 0 0.785085 0 1.75354Z" fill="white"/></svg>
  <svg x="17.5" y="5.41" width="3.5" height="16.23" viewBox="0 0 3.5 16.2273" preserveAspectRatio="none"><path id="Rectangle" fill-rule="evenodd" clip-rule="evenodd" d="M0 1.7543V14.473C0 15.4418 0.783502 16.2273 1.75 16.2273C2.7165 16.2273 3.5 15.4418 3.5 14.473V1.7543C3.5 0.785427 2.7165 0 1.75 0C0.783502 0 0 0.785427 0 1.7543Z" fill="white"/></svg>
  <svg x="36.73" y="1.84" width="97.06" height="24.33" viewBox="0 0 97.0667 24.331" preserveAspectRatio="none"><path id="iq option" fill-rule="evenodd" clip-rule="evenodd" d="M2.16276 4.32552C1.87096 4.32552 1.59203 4.26973 1.32598 4.15816C1.05992 4.04659 0.8282 3.89211 0.630804 3.69471C0.433409 3.49732 0.278929 3.26989 0.167358 3.01241C0.0557864 2.75494 0 2.47173 0 2.16276C0 1.85379 0.0557864 1.57058 0.167358 1.3131C0.278929 1.05563 0.433409 0.8282 0.630804 0.630805C0.8282 0.433409 1.05992 0.278928 1.32598 0.167356C1.59203 0.0557849 1.87096 0 2.16276 0C2.76353 0 3.27847 0.210266 3.70759 0.630805C4.13671 1.05134 4.35126 1.56199 4.35126 2.16276C4.35126 2.76353 4.13671 3.27417 3.70759 3.69471C3.27847 4.11525 2.76353 4.32552 2.16276 4.32552ZM0.489197 18.7697V6.15356H3.86207V18.7697H0.489197ZM15.532 19.0529V17.2506C15.223 17.7827 14.7424 18.2375 14.0901 18.6152C13.4379 18.9928 12.6311 19.1816 11.6699 19.1816C10.8631 19.1816 10.095 19.0143 9.36552 18.6795C8.63601 18.3448 7.99234 17.8814 7.43448 17.2892C6.87662 16.697 6.43464 15.989 6.10851 15.1651C5.78237 14.3411 5.61931 13.44 5.61931 12.4616C5.61931 11.4832 5.78237 10.5821 6.10851 9.75816C6.43464 8.93425 6.87662 8.22621 7.43448 7.63402C7.99234 7.04184 8.63601 6.57839 9.36552 6.24368C10.095 5.90896 10.8631 5.74161 11.6699 5.74161C12.6311 5.74161 13.4379 5.93042 14.0901 6.30805C14.7424 6.68567 15.223 7.14053 15.532 7.67264V6.15356H18.9048V24.331H15.532V19.0529ZM12.3651 16.0662C12.8113 16.0662 13.2362 15.9847 13.6395 15.8216C14.0429 15.6585 14.3991 15.4225 14.708 15.1136C15.017 14.8046 15.2659 14.427 15.4547 13.9807C15.6435 13.5344 15.7379 13.028 15.7379 12.4616C15.7379 11.8952 15.6435 11.3888 15.4547 10.9425C15.2659 10.4962 15.017 10.1186 14.708 9.80965C14.3991 9.50069 14.0429 9.26467 13.6395 9.10161C13.2362 8.93854 12.8113 8.85701 12.3651 8.85701C11.9188 8.85701 11.4939 8.94283 11.0906 9.11448C10.6872 9.28613 10.331 9.52644 10.0221 9.8354C9.7131 10.1444 9.46422 10.522 9.2754 10.9683C9.08659 11.4146 8.99218 11.9123 8.99218 12.4616C8.99218 13.0109 9.08659 13.5087 9.2754 13.9549C9.46422 14.4012 9.7131 14.7788 10.0221 15.0878C10.331 15.3968 10.6872 15.6371 11.0906 15.8087C11.4939 15.9804 11.9188 16.0662 12.3651 16.0662ZM32.3577 5.74161C33.3361 5.74161 34.2329 5.90896 35.0483 6.24368C35.8636 6.57839 36.5674 7.04184 37.1595 7.63402C37.7517 8.22621 38.2152 8.93425 38.5499 9.75816C38.8846 10.5821 39.052 11.4832 39.052 12.4616C39.052 13.44 38.8846 14.3411 38.5499 15.1651C38.2152 15.989 37.7517 16.697 37.1595 17.2892C36.5674 17.8814 35.8636 18.3448 35.0483 18.6795C34.2329 19.0143 33.3361 19.1816 32.3577 19.1816C31.3793 19.1816 30.4825 19.0143 29.6671 18.6795C28.8518 18.3448 28.148 17.8814 27.5559 17.2892C26.9637 16.697 26.5002 15.989 26.1655 15.1651C25.8308 14.3411 25.6634 13.44 25.6634 12.4616C25.6634 11.4832 25.8308 10.5821 26.1655 9.75816C26.5002 8.93425 26.9637 8.22621 27.5559 7.63402C28.148 7.04184 28.8518 6.57839 29.6671 6.24368C30.4825 5.90896 31.3793 5.74161 32.3577 5.74161ZM32.3577 16.0662C32.7868 16.0662 33.2031 15.9847 33.6064 15.8216C34.0098 15.6585 34.366 15.4225 34.6749 15.1136C34.9839 14.8046 35.2285 14.427 35.4087 13.9807C35.589 13.5344 35.6791 13.028 35.6791 12.4616C35.6791 11.8952 35.589 11.3888 35.4087 10.9425C35.2285 10.4962 34.9839 10.1186 34.6749 9.80965C34.366 9.50069 34.0098 9.26467 33.6064 9.10161C33.2031 8.93854 32.7868 8.85701 32.3577 8.85701C31.9114 8.85701 31.4909 8.93854 31.0961 9.10161C30.7013 9.26467 30.3494 9.50069 30.0405 9.80965C29.7315 10.1186 29.4869 10.4962 29.3067 10.9425C29.1264 11.3888 29.0363 11.8952 29.0363 12.4616C29.0363 13.028 29.1264 13.5344 29.3067 13.9807C29.4869 14.427 29.7315 14.8046 30.0405 15.1136C30.3494 15.4225 30.7013 15.6585 31.0961 15.8216C31.4909 15.9847 31.9114 16.0662 32.3577 16.0662ZM40.5002 6.15356H43.8731V7.67264C44.1821 7.14053 44.6627 6.68567 45.3149 6.30805C45.9672 5.93042 46.7739 5.74161 47.7352 5.74161C48.5419 5.74161 49.31 5.90896 50.0395 6.24368C50.769 6.57839 51.4127 7.04184 51.9706 7.63402C52.5284 8.22621 52.9704 8.93425 53.2966 9.75816C53.6227 10.5821 53.7857 11.4832 53.7857 12.4616C53.7857 13.44 53.6227 14.3411 53.2966 15.1651C52.9704 15.989 52.5284 16.697 51.9706 17.2892C51.4127 17.8814 50.769 18.3448 50.0395 18.6795C49.31 19.0143 48.5419 19.1816 47.7352 19.1816C46.7739 19.1816 45.9672 18.9928 45.3149 18.6152C44.6627 18.2375 44.1821 17.7827 43.8731 17.2506V19.0529V24.331H40.5002V6.15356ZM47.04 16.0662C47.4863 16.0662 47.9111 15.9804 48.3145 15.8087C48.7179 15.6371 49.074 15.3968 49.383 15.0878C49.692 14.7788 49.9408 14.4012 50.1296 13.9549C50.3185 13.5087 50.4129 13.0109 50.4129 12.4616C50.4129 11.9123 50.3185 11.4146 50.1296 10.9683C49.9408 10.522 49.692 10.1444 49.383 9.8354C49.074 9.52644 48.7179 9.28613 48.3145 9.11448C47.9111 8.94283 47.4863 8.85701 47.04 8.85701C46.5937 8.85701 46.1689 8.93854 45.7655 9.10161C45.3621 9.26467 45.006 9.50069 44.697 9.80965C44.388 10.1186 44.1392 10.4962 43.9503 10.9425C43.7615 11.3888 43.6671 11.8952 43.6671 12.4616C43.6671 13.028 43.7615 13.5344 43.9503 13.9807C44.1392 14.427 44.388 14.8046 44.697 15.1136C45.006 15.4225 45.3621 15.6585 45.7655 15.8216C46.1689 15.9847 46.5937 16.0662 47.04 16.0662ZM56.3411 9.03724H54.1269V6.15356H56.3411V2.29149H59.714V6.15356H62.8037V9.03724H59.714V13.9292C59.714 14.221 59.7441 14.4913 59.8041 14.7402C59.8642 14.9891 59.9801 15.1994 60.1517 15.371C60.392 15.6457 60.7353 15.783 61.1816 15.783C61.4734 15.783 61.7051 15.7529 61.8768 15.6929C62.0484 15.6328 62.2115 15.5513 62.366 15.4483L63.3186 18.4092C62.9238 18.598 62.499 18.7396 62.0441 18.834C61.5893 18.9284 61.0872 18.9756 60.5379 18.9756C59.9028 18.9756 59.3321 18.8769 58.8257 18.6795C58.3194 18.4821 57.8946 18.2118 57.5513 17.8685C56.7445 17.0961 56.3411 15.9976 56.3411 14.5729V9.03724ZM66.8009 4.32552C66.5091 4.32552 66.2302 4.26973 65.9641 4.15816C65.6981 4.04659 65.4664 3.89211 65.269 3.69471C65.0716 3.49732 64.9171 3.26989 64.8055 3.01241C64.6939 2.75494 64.6382 2.47173 64.6382 2.16276C64.6382 1.85379 64.6939 1.57058 64.8055 1.3131C64.9171 1.05563 65.0716 0.8282 65.269 0.630805C65.4664 0.433409 65.6981 0.278928 65.9641 0.167356C66.2302 0.0557849 66.5091 0 66.8009 0C67.4017 0 67.9166 0.210266 68.3457 0.630805C68.7749 1.05134 68.9894 1.56199 68.9894 2.16276C68.9894 2.76353 68.7749 3.27417 68.3457 3.69471C67.9166 4.11525 67.4017 4.32552 66.8009 4.32552ZM65.1273 18.7697V6.15356H68.5002V18.7697H65.1273ZM76.9517 5.74161C77.9301 5.74161 78.827 5.90896 79.6423 6.24368C80.4576 6.57839 81.1614 7.04184 81.7536 7.63402C82.3457 8.22621 82.8092 8.93425 83.1439 9.75816C83.4786 10.5821 83.646 11.4832 83.646 12.4616C83.646 13.44 83.4786 14.3411 83.1439 15.1651C82.8092 15.989 82.3457 16.697 81.7536 17.2892C81.1614 17.8814 80.4576 18.3448 79.6423 18.6795C78.827 19.0143 77.9301 19.1816 76.9517 19.1816C75.9733 19.1816 75.0765 19.0143 74.2611 18.6795C73.4458 18.3448 72.7421 17.8814 72.1499 17.2892C71.5577 16.697 71.0942 15.989 70.7595 15.1651C70.4248 14.3411 70.2575 13.44 70.2575 12.4616C70.2575 11.4832 70.4248 10.5821 70.7595 9.75816C71.0942 8.93425 71.5577 8.22621 72.1499 7.63402C72.7421 7.04184 73.4458 6.57839 74.2611 6.24368C75.0765 5.90896 75.9733 5.74161 76.9517 5.74161ZM76.9517 16.0662C77.3808 16.0662 77.7971 15.9847 78.2004 15.8216C78.6038 15.6585 78.96 15.4225 79.269 15.1136C79.5779 14.8046 79.8225 14.427 80.0028 13.9807C80.183 13.5344 80.2731 13.028 80.2731 12.4616C80.2731 11.8952 80.183 11.3888 80.0028 10.9425C79.8225 10.4962 79.5779 10.1186 79.269 9.80965C78.96 9.50069 78.6038 9.26467 78.2004 9.10161C77.7971 8.93854 77.3808 8.85701 76.9517 8.85701C76.5054 8.85701 76.0849 8.93854 75.6901 9.10161C75.2953 9.26467 74.9434 9.50069 74.6345 9.80965C74.3255 10.1186 74.0809 10.4962 73.9007 10.9425C73.7205 11.3888 73.6303 11.8952 73.6303 12.4616C73.6303 13.028 73.7205 13.5344 73.9007 13.9807C74.0809 14.427 74.3255 14.8046 74.6345 15.1136C74.9434 15.4225 75.2953 15.6585 75.6901 15.8216C76.0849 15.9847 76.5054 16.0662 76.9517 16.0662ZM88.4414 7.80138C88.8362 7.16628 89.3683 6.66422 90.0377 6.29517C90.7071 5.92613 91.471 5.74161 92.3292 5.74161C93.1188 5.74161 93.8139 5.87034 94.4147 6.12782C95.0155 6.38529 95.509 6.75004 95.8952 7.22207C96.2814 7.6941 96.5732 8.26053 96.7706 8.92138C96.968 9.58223 97.0667 10.316 97.0667 11.1228V18.7697H93.6938V11.5347C93.6938 10.625 93.4921 9.95127 93.0887 9.51356C92.6854 9.07586 92.0975 8.85701 91.325 8.85701C90.8616 8.85701 90.4539 8.95571 90.1021 9.1531C89.7502 9.3505 89.4498 9.61655 89.2009 9.95126C88.952 10.286 88.7632 10.6808 88.6345 11.1356C88.5057 11.5905 88.4414 12.0754 88.4414 12.5903V18.7697H85.0685V6.15356H88.4414V7.80138Z" fill="#ECEAE9"/></svg>
</svg>