<svg preserveAspectRatio="none" width="100%" height="100%" overflow="visible" style="display: block;" viewBox="0 0 1440 1216" fill="none" xmlns="http://www.w3.org/2000/svg">
<g id="PIC Blured" clip-path="url(#clip0_0_176)">
<g id="Vector 5" filter="url(#filter0_f_0_176)">
<path d="M395.974 869C348.89 681.886 1156.47 115 1515.97 102C1961.97 222 1637.97 902.5 1488.97 1073C1339.97 1243.5 1245.81 831.5 936.973 938C704.162 1018.28 447.306 1073 395.974 869Z" fill="url(#paint0_radial_0_176)" fill-opacity="0.3"/>
</g>
<g id="Vector 6" filter="url(#filter1_f_0_176)">
<path d="M528.286 255.524C575.317 407.058 138.179 828.27 -38.5606 848.396C-439.615 986.807 -472.291 303.883 -553.002 146.809C-633.713 -10.2641 148.035 -165.018 270.264 -131.194C392.493 -97.3704 120.222 133.841 207.191 262.891C294.159 391.94 481.254 103.991 528.286 255.524Z" fill="url(#paint1_radial_0_176)" fill-opacity="0.3"/>
</g>
</g>
<defs>
<filter id="filter0_f_0_176" x="214" y="-78" width="1708.72" height="1372.9" filterUnits="userSpaceOnUse" color-interpolation-filters="sRGB">
<feFlood flood-opacity="0" result="BackgroundImageFix"/>
<feBlend mode="normal" in="SourceGraphic" in2="BackgroundImageFix" result="shape"/>
<feGaussianBlur stdDeviation="90" result="effect1_foregroundBlur_0_176"/>
</filter>
<filter id="filter1_f_0_176" x="-738.833" y="-315.888" width="1450.64" height="1362.68" filterUnits="userSpaceOnUse" color-interpolation-filters="sRGB">
<feFlood flood-opacity="0" result="BackgroundImageFix"/>
<feBlend mode="normal" in="SourceGraphic" in2="BackgroundImageFix" result="shape"/>
<feGaussianBlur stdDeviation="90" result="effect1_foregroundBlur_0_176"/>
</filter>
<radialGradient id="paint0_radial_0_176" cx="0" cy="0" r="1" gradientUnits="userSpaceOnUse" gradientTransform="translate(1622.81 159.5) rotate(119.927) scale(1117.05 1475.17)">
<stop stop-color="#FF761E"/>
<stop offset="1" stop-color="#141815" stop-opacity="0"/>
</radialGradient>
<radialGradient id="paint1_radial_0_176" cx="0" cy="0" r="1" gradientTransform="matrix(-44.0088 982.751 -1142.01 -260.531 238.839 -210.815)" gradientUnits="userSpaceOnUse">
<stop stop-color="#FF761E"/>
<stop offset="1" stop-color="#141815" stop-opacity="0"/>
</radialGradient>
<clipPath id="clip0_0_176">
<rect width="1440" height="1216" fill="white"/>
</clipPath>
</defs>
</svg>
