<svg preserveAspectRatio="none" width="100%" height="100%" overflow="visible" style="display: block;" viewBox="0 0 48 40.1455" fill="none" xmlns="http://www.w3.org/2000/svg">
<g id="wrap">
<path id="text" d="M27.0545 24.4364C27.0545 9.07636 33.7455 0.930911 47.1273 0V6.98182C40.1455 7.91272 36.6545 11.6945 36.6545 18.3273V20.9455C36.6545 20.9455 37.0036 20.8291 37.7018 20.5964C39.0982 20.2473 39.9127 20.0727 40.1454 20.0727C42.3564 20.0727 44.2182 20.9455 45.7309 22.6909C47.2436 24.32 48 26.4727 48 29.1491C48 32.5236 47.0109 35.2 45.0327 37.1782C43.1709 39.1564 40.6691 40.1454 37.5273 40.1454C30.5455 40.1454 27.0545 34.9091 27.0545 24.4364ZM0 24.4364C0 9.07636 6.69091 0.930911 20.0727 0V6.98182C13.0909 7.91272 9.6 11.6945 9.6 18.3273V20.9455C9.6 20.9455 9.94909 20.8291 10.6473 20.5964C12.0436 20.2473 12.8582 20.0727 13.0909 20.0727C15.3018 20.0727 17.1636 20.9455 18.6764 22.6909C20.1891 24.32 20.9455 26.4727 20.9455 29.1491C20.9455 32.5236 19.9564 35.2 17.9782 37.1782C16.1164 39.1564 13.6145 40.1454 10.4727 40.1454C3.49091 40.1454 0 34.9091 0 24.4364Z" fill="url(#paint0_linear_0_160)"/>
</g>
<defs>
<linearGradient id="paint0_linear_0_160" x1="0.142012" y1="0.267768" x2="54.8339" y2="15.3282" gradientUnits="userSpaceOnUse">
<stop stop-color="#FFA33A"/>
<stop offset="0.15" stop-color="#FF8516"/>
<stop offset="1" stop-color="#FF5500"/>
</linearGradient>
</defs>
</svg>
