
<svg width="155" height="126" viewBox="0 0 155 126" fill="none" xmlns="http://www.w3.org/2000/svg">
<path d="M123 126C110 126 100.167 120.667 93.5 110C87.8333 101 85 90 85 77C85 60.3334 89.1667 45.3333 97.5 32C106.167 18.6667 119.167 8.00002 136.5 0L141 9C130.667 13.3333 121.667 20.1667 114 29.5C106.667 38.8333 103 48.3333 103 58C103 62 103.5 65.5 104.5 68.5C109.833 64.1667 116 62 123 62C132 62 139.5 65 145.5 71C151.833 76.6667 155 84.3334 155 94C155 103 151.833 110.667 145.5 117C139.5 123 132 126 123 126ZM38 126C25 126 15.1667 120.667 8.5 110C2.83333 101 0 90 0 77C0 60.3334 4.16667 45.3333 12.5 32C21.1667 18.6667 34.1667 8.00002 51.5 0L56 9C45.6667 13.3333 36.6667 20.1667 29 29.5C21.6667 38.8333 18 48.3333 18 58C18 62 18.5 65.5 19.5 68.5C24.8333 64.1667 31 62 38 62C47 62 54.5 65 60.5 71C66.8333 76.6667 70 84.3334 70 94C70 103 66.8333 110.667 60.5 117C54.5 123 47 126 38 126Z" fill="rgba(255,255,255,0.2)"/>
</svg>
