<svg xmlns="http://www.w3.org/2000/svg" width="272" height="52" fill="none" xmlns:v="https://vecta.io/nano"><g fill="#000"><path d="M49.516 25.901c0 8.247 6.548 14.919 15.624 14.919 7.211 0 13.966-4.268 15.126-11.894h-5.387c-1.202 4.766-5.47 7.045-9.656 7.045-5.802 0-10.319-4.269-10.319-10.195 0-5.843 4.476-10.112 10.277-10.112 3.937 0 8.33 1.948 9.697 7.045h5.387c-1.202-7.294-7.874-11.894-15.085-11.894-9.117 0-15.665 6.672-15.665 15.085zm96.557-14.554V16.2h12.959v24.123h5.391V16.2h12.956v-4.853h-31.306z"/><path d="M228.321 23.871V11.347h5.058v28.976h-5.058v-4.268h-.415c-.829 2.528-3.151 4.766-7.132 4.766-5.805 0-9.91-4.849-9.91-10.899 0-5.968 4.022-10.816 9.744-10.816 4.022 0 6.469 2.238 7.298 4.766h.415zm-12.398 6.092c0 3.564 2.778 6.423 6.178 6.423 3.442 0 6.22-2.86 6.22-6.423s-2.778-6.423-6.22-6.423c-3.4 0-6.178 2.859-6.178 6.423zm30.658 10.899c-7.049 0-11.195-4.89-11.195-10.941 0-5.926 4.437-10.816 11.03-10.816 6.8 0 10.946 5.263 10.946 12.308H240.61c.332 2.777 2.447 4.973 6.013 4.973 2.156 0 4.271-.829 5.224-2.901h5.101c-.705 4.061-4.603 7.377-10.367 7.377zm-5.763-13.096h10.988c-.415-2.362-2.654-4.186-5.515-4.186s-5.059 1.823-5.473 4.186zm-37.019-8.164v4.268h-.415c-.829-2.735-3.607-4.766-7.339-4.766-5.681 0-9.703 4.849-9.703 10.816 0 6.051 4.105 10.899 9.827 10.899 3.732 0 6.386-2.031 7.215-4.766h.415v4.269h5.058v-20.72h-5.058zm-6.22 16.784c-3.4 0-6.178-2.859-6.178-6.423s2.778-6.423 6.178-6.423c3.442 0 6.22 2.859 6.22 6.423s-2.778 6.423-6.22 6.423z" fill-rule="evenodd"/><path d="M172.321 19.602h5.059v2.901h.415c.414-1.658 1.244-2.901 4.354-2.901h3.524v4.351h-3.939c-2.695 0-4.354 1.409-4.354 5.346v11.023h-5.059V19.602z"/><path fill-rule="evenodd" d="M146.075 23.871v-4.268h5.059v20.721h-5.059v-4.269h-.415c-.829 2.735-3.483 4.766-7.214 4.766-5.723 0-9.828-4.849-9.828-10.899 0-5.968 4.022-10.816 9.703-10.816 3.732 0 6.51 2.031 7.339 4.766h.415zm-12.398 6.092c0 3.564 2.778 6.423 6.178 6.423 3.442 0 6.22-2.859 6.22-6.423s-2.778-6.423-6.22-6.423c-3.4 0-6.178 2.859-6.178 6.423z"/><path d="M111.7 33.651h-5.056c.414 3.937 3.025 7.169 10.816 7.169 6.465 0 9.822-2.196 9.822-6.258 0-3.937-3.191-5.263-6.88-6.05l-3.522-.787c-2.653-.58-4.352-1.036-4.352-2.362 0-1.16 1.285-2.321 4.02-2.321 2.611 0 4.434.995 4.849 3.191h5.056c-.415-3.937-2.735-7.128-9.946-7.128-5.802 0-9.034 2.569-9.034 6.299 0 3.813 2.818 5.014 6.464 5.802l4.517 1.036c2.611.58 3.772 1.243 3.772 2.404 0 1.202-1.244 2.196-4.766 2.196-2.818 0-5.346-.829-5.76-3.191z"/><path fill-rule="evenodd" d="M99.455 23.871v-4.268h5.056v20.721h-5.056v-4.269h-.414c-.829 2.735-3.481 4.766-7.211 4.766-5.719 0-9.822-4.849-9.822-10.899 0-5.968 4.02-10.816 9.697-10.816 3.73 0 6.506 2.031 7.335 4.766h.414zm-12.391 6.092c0 3.564 2.777 6.423 6.175 6.423 3.44 0 6.216-2.859 6.216-6.423s-2.776-6.423-6.216-6.423c-3.398 0-6.175 2.859-6.175 6.423z"/></g><g clip-path="url(#A)"><path d="M0 16.615L19.756 6.078l19.756 10.537v23.707H0V16.615z" fill="#76adff"/><g fill="#000"><path d="M17.122 16.615h5.268v17.122h-5.268V16.615zm-9.22 6.586h5.268v10.537H7.902V23.201zm23.708 0h-5.268v10.537h5.268V23.201z"/></g></g><defs><clipPath id="A"><path fill="#000" transform="translate(0 5.2)" d="M0 0h39.512v36H0z"/></clipPath></defs></svg>