<svg width="105" height="24" viewBox="0 0 105 24" fill="none" xmlns="http://www.w3.org/2000/svg">
<g clip-path="url(#clip0_3001_11210)">
<path d="M0 10.0125C0 6.5078 0 4.75544 0.682061 3.41682C1.28202 2.23934 2.23934 1.28202 3.41682 0.682061C4.75544 0 6.5078 0 10.0125 0H13.9875C17.4922 0 19.2446 0 20.5832 0.682061C21.7607 1.28202 22.718 2.23934 23.3179 3.41682C24 4.75544 24 6.5078 24 10.0125V13.9875C24 17.4922 24 19.2446 23.3179 20.5832C22.718 21.7607 21.7607 22.718 20.5832 23.3179C19.2446 24 17.4922 24 13.9875 24H10.0125C6.5078 24 4.75544 24 3.41682 23.3179C2.23934 22.718 1.28202 21.7607 0.682061 20.5832C0 19.2446 0 17.4922 0 13.9875V10.0125Z" fill="#FF5500"/>
<path fill-rule="evenodd" clip-rule="evenodd" d="M16.2407 6.9375C17.3971 6.9375 17.9753 6.93751 18.417 7.16167C18.8055 7.35885 19.1214 7.67347 19.3193 8.06045C19.5444 8.50039 19.5444 9.07631 19.5444 10.2281V14.025C19.5444 14.2022 19.5444 14.2908 19.5097 14.3585C19.4793 14.418 19.4307 14.4664 19.3709 14.4968C19.303 14.5312 19.214 14.5312 19.0361 14.5312H18.9029C18.6181 14.5312 18.4758 14.5312 18.4292 14.5778C18.389 14.618 18.3735 14.6765 18.3886 14.7312C18.406 14.7946 18.5298 14.8646 18.7775 15.0045L19.9222 15.6514C20.016 15.7044 20.0629 15.7308 20.097 15.7682C20.1272 15.8012 20.15 15.8403 20.1639 15.8827C20.1797 15.9307 20.1797 15.9844 20.1797 16.0917V16.5554C20.1797 16.7326 20.1797 16.8212 20.1451 16.8889C20.1146 16.9485 20.066 16.9969 20.0062 17.0272C19.9383 17.0617 19.8494 17.0617 19.6715 17.0617L11.4126 17.0623C10.2561 17.0623 9.67787 17.0624 9.23616 16.8383C8.84762 16.6411 8.53172 16.3264 8.33375 15.9394C8.10869 15.4995 8.10869 14.9235 8.10869 13.7716V10.2281C8.10869 9.07631 8.1087 8.50039 8.33375 8.06045C8.53171 7.67347 8.84757 7.35885 9.23608 7.16167C9.67776 6.93751 10.256 6.9375 11.4123 6.9375H16.2407ZM10.4911 8.83598C10.228 8.83598 10.0146 9.04847 10.0146 9.31059V14.6896C10.0146 14.9518 10.228 15.1643 10.4911 15.1643H16.3495C16.7919 15.1643 16.9955 14.6158 16.6594 14.3291L14.1661 12.2024C13.83 11.9157 14.0335 11.3673 14.476 11.3673H17.1619C17.4251 11.3673 17.6384 11.1548 17.6384 10.8927V9.31059C17.6384 9.04847 17.4251 8.83598 17.1619 8.83598H10.4911Z" fill="white"/>
<path d="M3.82031 7.25391C3.82031 7.07916 3.96253 6.9375 4.13797 6.9375L6.67923 6.9375C6.85467 6.9375 6.99689 7.07916 6.99689 7.25391V8.52203C6.99689 8.62694 6.94469 8.72502 6.85753 8.7839L4.56468 10.3327C4.46347 10.4011 4.40286 10.515 4.40286 10.6368C4.40286 10.8397 4.56799 11.0041 4.77169 11.0041H6.67923C6.85467 11.0041 6.99689 11.1458 6.99689 11.3205V16.7461C6.99689 16.9208 6.85467 17.0625 6.67923 17.0625H4.13797C3.96253 17.0625 3.82031 16.9208 3.82031 16.7461V7.25391Z" fill="white"/>
</g>
<path d="M29.552 15.6241V8.03703H31.9572V15.6241H29.552ZM29.4858 5.79775C29.4858 5.09797 30.0522 4.53078 30.751 4.53078C31.4497 4.53078 32.0161 5.09797 32.0161 5.79775C32.0161 6.49752 31.4497 7.06471 30.751 7.06471C30.0522 7.06471 29.4858 6.49752 29.4858 5.79775Z" fill="black"/>
<path d="M33.34 11.8306C33.34 9.07565 35.3921 7.81605 37.9444 7.81605C39.1948 7.81605 40.4232 8.19172 41.1661 9.2598V8.03703H43.5786V19.5428H41.1661V14.4013C40.4232 15.4694 39.1948 15.8451 37.9444 15.8451C35.3921 15.8451 33.34 14.5855 33.34 11.8306ZM38.4593 9.6723C37.0177 9.6723 35.7526 10.2027 35.7526 11.8306C35.7526 13.4585 37.0177 13.9888 38.4593 13.9888C39.9009 13.9888 41.1661 13.4585 41.1661 11.8306C41.1661 10.2027 39.9009 9.6723 38.4593 9.6723Z" fill="black"/>
<path d="M45.1968 15.6241V4.45712H47.6093V9.2598C48.3522 8.19172 49.5805 7.81605 50.8309 7.81605C53.3832 7.81605 55.4353 9.07565 55.4353 11.8306C55.4353 14.5855 53.3832 15.8451 50.8309 15.8451C49.5805 15.8451 48.3522 15.4694 47.6093 14.4013V15.6241H45.1968ZM50.316 9.6723C48.8744 9.6723 47.6093 10.2027 47.6093 11.8306C47.6093 13.4585 48.8744 13.9888 50.316 13.9888C51.7577 13.9888 53.0228 13.4585 53.0228 11.8306C53.0228 10.2027 51.7577 9.6723 50.316 9.6723Z" fill="black"/>
<path d="M56.7593 8.03703H59.1718V9.06092C59.797 8.11069 60.8488 7.81605 61.9301 7.81605C62.592 7.81605 63.7615 7.91918 64.3279 8.32431L63.3055 10.0406C62.7391 9.75333 62.0772 9.6723 61.452 9.6723C59.9221 9.6723 59.1718 10.4826 59.1718 11.9852V15.6241H56.7593V8.03703Z" fill="black"/>
<path d="M64.5559 11.8306C64.5559 8.81047 67.27 7.81605 69.8664 7.81605C72.4628 7.81605 75.1769 8.81047 75.1769 11.8306C75.1769 14.8506 72.4555 15.8451 69.8664 15.8451C67.2774 15.8451 64.5559 14.8506 64.5559 11.8306ZM69.8664 9.6723C68.4174 9.6723 66.9684 10.1364 66.9684 11.8306C66.9684 13.5248 68.4174 13.9888 69.8664 13.9888C71.3154 13.9888 72.7644 13.5248 72.7644 11.8306C72.7644 10.1364 71.3154 9.6723 69.8664 9.6723Z" fill="black"/>
<path d="M76.5009 4.45712H78.9134V10.8656L82.6279 8.03703H85.8715L81.7746 11.1529L85.8715 15.6241H83.0177L80.0976 12.4272L78.9134 13.3259V15.6241H76.5009V4.45712Z" fill="black"/>
<path d="M86.2982 11.8306C86.2982 8.98726 88.6886 7.81605 91.2262 7.81605C94.183 7.81605 96.0145 9.28927 96.0145 12.3462C96.0145 12.4714 96.0145 12.5966 96.0071 12.7219H88.8063C88.9534 13.7531 90.2774 14.0625 91.3733 14.0625C92.381 14.0625 93.4843 13.8636 94.4037 13.4364L95.4849 14.8801C94.3963 15.6977 92.6899 15.8451 91.3733 15.8451C88.7033 15.8451 86.2982 14.8433 86.2982 11.8306ZM91.2262 9.59864C90.042 9.59864 88.9608 10.1069 88.8137 11.1602H93.6387C93.4916 10.1069 92.4104 9.59864 91.2262 9.59864Z" fill="black"/>
<path d="M97.3458 8.03703H99.7584V9.06092C100.384 8.11069 101.435 7.81605 102.517 7.81605C103.179 7.81605 104.348 7.91918 104.914 8.32431L103.892 10.0406C103.326 9.75333 102.664 9.6723 102.038 9.6723C100.509 9.6723 99.7584 10.4826 99.7584 11.9852V15.6241H97.3458V8.03703Z" fill="black"/>
<defs>
<clipPath id="clip0_3001_11210">
<rect width="24" height="24" fill="white"/>
</clipPath>
</defs>
</svg>
