<svg width="153" height="32" viewBox="0 0 153 32" fill="none" xmlns="http://www.w3.org/2000/svg">
<path fill-rule="evenodd" clip-rule="evenodd" d="M16 32C7.16344 32 0 24.8366 0 16C0 7.16344 7.16344 0 16 0C24.8366 0 32 7.16344 32 16C32 24.8366 24.8366 32 16 32Z" fill="#FE7A20"/>
<path fill-rule="evenodd" clip-rule="evenodd" d="M13.4545 11.8061V22.7394C13.4545 23.8373 14.35 24.7273 15.4545 24.7273C16.5591 24.7273 17.4545 23.8373 17.4545 22.7394V11.8061C17.4545 10.7082 16.5591 9.81818 15.4545 9.81818C14.35 9.81818 13.4545 10.7082 13.4545 11.8061Z" fill="white"/>
<path fill-rule="evenodd" clip-rule="evenodd" d="M6.9091 15.4586V22.7232C6.9091 23.83 7.80453 24.7273 8.9091 24.7273C10.0137 24.7273 10.9091 23.83 10.9091 22.7232V15.4586C10.9091 14.3518 10.0137 13.4545 8.9091 13.4545C7.80453 13.4545 6.9091 14.3518 6.9091 15.4586Z" fill="white"/>
<path fill-rule="evenodd" clip-rule="evenodd" d="M20 8.18673V22.7224C20 23.8296 20.8954 24.7273 22 24.7273C23.1046 24.7273 24 23.8296 24 22.7224V8.18673C24 7.07945 23.1046 6.18182 22 6.18182C20.8954 6.18182 20 7.07945 20 8.18673Z" fill="white"/>
<path fill-rule="evenodd" clip-rule="evenodd" d="M44.4717 7.06825C44.1382 7.06825 43.8195 7.00449 43.5154 6.87698C43.2113 6.74947 42.9465 6.57292 42.7209 6.34733C42.4953 6.12173 42.3188 5.86181 42.1913 5.56756C42.0638 5.2733 42 4.94963 42 4.59652C42 4.24342 42.0638 3.91974 42.1913 3.62549C42.3188 3.33124 42.4953 3.07131 42.7209 2.84572C42.9465 2.62012 43.2113 2.44357 43.5154 2.31606C43.8195 2.18855 44.1382 2.1248 44.4717 2.1248C45.1583 2.1248 45.7468 2.3651 46.2372 2.84572C46.7277 3.32633 46.9729 3.90993 46.9729 4.59652C46.9729 5.28312 46.7277 5.86671 46.2372 6.34733C45.7468 6.82794 45.1583 7.06825 44.4717 7.06825ZM42.5591 23.5758V9.15744H46.4138V23.5758H42.5591ZM59.7508 23.8995V21.8397C59.3977 22.4479 58.8484 22.9677 58.103 23.3993C57.3575 23.8309 56.4356 24.0466 55.337 24.0466C54.415 24.0466 53.5372 23.8554 52.7034 23.4728C51.8697 23.0903 51.1341 22.5607 50.4966 21.8839C49.859 21.2071 49.3539 20.3979 48.9812 19.4563C48.6084 18.5147 48.4221 17.4848 48.4221 16.3666C48.4221 15.2485 48.6084 14.2186 48.9812 13.277C49.3539 12.3354 49.859 11.5262 50.4966 10.8494C51.1341 10.1726 51.8697 9.64296 52.7034 9.26043C53.5372 8.8779 54.415 8.68664 55.337 8.68664C56.4356 8.68664 57.3575 8.90242 58.103 9.334C58.8484 9.76557 59.3977 10.2854 59.7508 10.8935V9.15744H63.6055V29.9317H59.7508V23.8995ZM56.1315 20.4862C56.6415 20.4862 57.127 20.393 57.588 20.2066C58.049 20.0203 58.4561 19.7505 58.8092 19.3974C59.1623 19.0443 59.4467 18.6128 59.6625 18.1027C59.8783 17.5927 59.9862 17.014 59.9862 16.3666C59.9862 15.7193 59.8783 15.1406 59.6625 14.6305C59.4467 14.1205 59.1623 13.6889 58.8092 13.3358C58.4561 12.9827 58.049 12.713 57.588 12.5266C57.127 12.3403 56.6415 12.2471 56.1315 12.2471C55.6215 12.2471 55.1359 12.3452 54.6749 12.5414C54.2139 12.7375 53.8069 13.0122 53.4538 13.3653C53.1007 13.7184 52.8162 14.1499 52.6005 14.66C52.3847 15.17 52.2768 15.7389 52.2768 16.3666C52.2768 16.9944 52.3847 17.5633 52.6005 18.0733C52.8162 18.5833 53.1007 19.0149 53.4538 19.368C53.8069 19.7211 54.2139 19.9958 54.6749 20.1919C55.1359 20.3881 55.6215 20.4862 56.1315 20.4862ZM78.9802 8.68664C80.0984 8.68664 81.1234 8.8779 82.0552 9.26043C82.987 9.64296 83.7913 10.1726 84.468 10.8494C85.1448 11.5262 85.6745 12.3354 86.057 13.277C86.4395 14.2186 86.6308 15.2485 86.6308 16.3666C86.6308 17.4848 86.4395 18.5147 86.057 19.4563C85.6745 20.3979 85.1448 21.2071 84.468 21.8839C83.7913 22.5607 82.987 23.0903 82.0552 23.4728C81.1234 23.8554 80.0984 24.0466 78.9802 24.0466C77.8621 24.0466 76.8371 23.8554 75.9053 23.4728C74.9735 23.0903 74.1692 22.5607 73.4924 21.8839C72.8156 21.2071 72.286 20.3979 71.9034 19.4563C71.5209 18.5147 71.3297 17.4848 71.3297 16.3666C71.3297 15.2485 71.5209 14.2186 71.9034 13.277C72.286 12.3354 72.8156 11.5262 73.4924 10.8494C74.1692 10.1726 74.9735 9.64296 75.9053 9.26043C76.8371 8.8779 77.8621 8.68664 78.9802 8.68664ZM78.9802 20.4862C79.4707 20.4862 79.9464 20.393 80.4074 20.2066C80.8684 20.0203 81.2754 19.7505 81.6285 19.3974C81.9816 19.0443 82.2612 18.6128 82.4671 18.1027C82.6731 17.5927 82.7761 17.014 82.7761 16.3666C82.7761 15.7193 82.6731 15.1406 82.4671 14.6305C82.2612 14.1205 81.9816 13.6889 81.6285 13.3358C81.2754 12.9827 80.8684 12.713 80.4074 12.5266C79.9464 12.3403 79.4707 12.2471 78.9802 12.2471C78.4702 12.2471 77.9896 12.3403 77.5384 12.5266C77.0872 12.713 76.6851 12.9827 76.332 13.3358C75.9789 13.6889 75.6993 14.1205 75.4933 14.6305C75.2874 15.1406 75.1844 15.7193 75.1844 16.3666C75.1844 17.014 75.2874 17.5927 75.4933 18.1027C75.6993 18.6128 75.9789 19.0443 76.332 19.3974C76.6851 19.7505 77.0872 20.0203 77.5384 20.2066C77.9896 20.393 78.4702 20.4862 78.9802 20.4862ZM88.286 9.15744H92.1407V10.8935C92.4938 10.2854 93.0431 9.76557 93.7885 9.334C94.5339 8.90242 95.4559 8.68664 96.5545 8.68664C97.4765 8.68664 98.3543 8.8779 99.188 9.26043C100.022 9.64296 100.757 10.1726 101.395 10.8494C102.032 11.5262 102.538 12.3354 102.91 13.277C103.283 14.2186 103.469 15.2485 103.469 16.3666C103.469 17.4848 103.283 18.5147 102.91 19.4563C102.538 20.3979 102.032 21.2071 101.395 21.8839C100.757 22.5607 100.022 23.0903 99.188 23.4728C98.3543 23.8554 97.4765 24.0466 96.5545 24.0466C95.4559 24.0466 94.5339 23.8309 93.7885 23.3993C93.0431 22.9677 92.4938 22.4479 92.1407 21.8397V23.8995V29.9317H88.286V9.15744ZM95.76 20.4862C96.27 20.4862 96.7556 20.3881 97.2166 20.1919C97.6776 19.9958 98.0846 19.7211 98.4377 19.368C98.7908 19.0149 99.0752 18.5833 99.291 18.0733C99.5068 17.5633 99.6147 16.9944 99.6147 16.3666C99.6147 15.7389 99.5068 15.17 99.291 14.66C99.0752 14.1499 98.7908 13.7184 98.4377 13.3653C98.0846 13.0122 97.6776 12.7375 97.2166 12.5414C96.7556 12.3452 96.27 12.2471 95.76 12.2471C95.25 12.2471 94.7644 12.3403 94.3034 12.5266C93.8424 12.713 93.4354 12.9827 93.0823 13.3358C92.7292 13.6889 92.4448 14.1205 92.229 14.6305C92.0132 15.1406 91.9053 15.7193 91.9053 16.3666C91.9053 17.014 92.0132 17.5927 92.229 18.1027C92.4448 18.6128 92.7292 19.0443 93.0823 19.3974C93.4354 19.7505 93.8424 20.0203 94.3034 20.2066C94.7644 20.393 95.25 20.4862 95.76 20.4862ZM106.39 12.4531H103.859V9.15744H106.39V4.74365H110.245V9.15744H113.776V12.4531H110.245V18.0439C110.245 18.3774 110.279 18.6863 110.348 18.9708C110.416 19.2552 110.549 19.4955 110.745 19.6917C111.019 20.0056 111.412 20.1625 111.922 20.1625C112.255 20.1625 112.52 20.1282 112.716 20.0595C112.912 19.9909 113.099 19.8977 113.275 19.78L114.364 23.1639C113.913 23.3797 113.427 23.5415 112.908 23.6494C112.388 23.7573 111.814 23.8112 111.186 23.8112C110.46 23.8112 109.808 23.6984 109.229 23.4728C108.651 23.2473 108.165 22.9383 107.773 22.546C106.851 21.6632 106.39 20.4077 106.39 18.7795V12.4531ZM118.344 7.06825C118.01 7.06825 117.692 7.00449 117.388 6.87698C117.084 6.74947 116.819 6.57292 116.593 6.34733C116.368 6.12173 116.191 5.86181 116.063 5.56756C115.936 5.2733 115.872 4.94963 115.872 4.59652C115.872 4.24342 115.936 3.91974 116.063 3.62549C116.191 3.33124 116.368 3.07131 116.593 2.84572C116.819 2.62012 117.084 2.44357 117.388 2.31606C117.692 2.18855 118.01 2.1248 118.344 2.1248C119.031 2.1248 119.619 2.3651 120.109 2.84572C120.6 3.32633 120.845 3.90993 120.845 4.59652C120.845 5.28312 120.6 5.86671 120.109 6.34733C119.619 6.82794 119.031 7.06825 118.344 7.06825ZM116.431 23.5758V9.15744H120.286V23.5758H116.431ZM129.945 8.68664C131.063 8.68664 132.088 8.8779 133.02 9.26043C133.952 9.64296 134.756 10.1726 135.433 10.8494C136.109 11.5262 136.639 12.3354 137.022 13.277C137.404 14.2186 137.595 15.2485 137.595 16.3666C137.595 17.4848 137.404 18.5147 137.022 19.4563C136.639 20.3979 136.109 21.2071 135.433 21.8839C134.756 22.5607 133.952 23.0903 133.02 23.4728C132.088 23.8554 131.063 24.0466 129.945 24.0466C128.827 24.0466 127.802 23.8554 126.87 23.4728C125.938 23.0903 125.134 22.5607 124.457 21.8839C123.78 21.2071 123.251 20.3979 122.868 19.4563C122.486 18.5147 122.294 17.4848 122.294 16.3666C122.294 15.2485 122.486 14.2186 122.868 13.277C123.251 12.3354 123.78 11.5262 124.457 10.8494C125.134 10.1726 125.938 9.64296 126.87 9.26043C127.802 8.8779 128.827 8.68664 129.945 8.68664ZM129.945 20.4862C130.435 20.4862 130.911 20.393 131.372 20.2066C131.833 20.0203 132.24 19.7505 132.593 19.3974C132.946 19.0443 133.226 18.6128 133.432 18.1027C133.638 17.5927 133.741 17.014 133.741 16.3666C133.741 15.7193 133.638 15.1406 133.432 14.6305C133.226 14.1205 132.946 13.6889 132.593 13.3358C132.24 12.9827 131.833 12.713 131.372 12.5266C130.911 12.3403 130.435 12.2471 129.945 12.2471C129.435 12.2471 128.954 12.3403 128.503 12.5266C128.052 12.713 127.65 12.9827 127.297 13.3358C126.943 13.6889 126.664 14.1205 126.458 14.6305C126.252 15.1406 126.149 15.7193 126.149 16.3666C126.149 17.014 126.252 17.5927 126.458 18.1027C126.664 18.6128 126.943 19.0443 127.297 19.3974C127.65 19.7505 128.052 20.0203 128.503 20.2066C128.954 20.393 129.435 20.4862 129.945 20.4862ZM143.076 11.0407C143.527 10.3148 144.135 9.74105 144.9 9.31928C145.665 8.89752 146.538 8.68664 147.519 8.68664C148.421 8.68664 149.216 8.83376 149.903 9.12802C150.589 9.42227 151.153 9.83913 151.594 10.3786C152.036 10.9181 152.369 11.5654 152.595 12.3207C152.821 13.0759 152.933 13.9145 152.933 14.8365V23.5758H149.079V15.3073C149.079 14.2676 148.848 13.4977 148.387 12.9974C147.926 12.4972 147.254 12.2471 146.371 12.2471C145.842 12.2471 145.376 12.3599 144.974 12.5855C144.572 12.8111 144.228 13.1151 143.944 13.4977C143.659 13.8802 143.444 14.3314 143.297 14.8512C143.149 15.3711 143.076 15.9253 143.076 16.5138V23.5758H139.221V9.15744H143.076V11.0407Z" fill="black"/>
</svg>
