<svg width="32" height="32" viewBox="0 0 32 32" fill="none" xmlns="http://www.w3.org/2000/svg">
<path fill-rule="evenodd" clip-rule="evenodd" d="M16 32C7.16344 32 0 24.8366 0 16C0 7.16344 7.16344 0 16 0C24.8366 0 32 7.16344 32 16C32 24.8366 24.8366 32 16 32Z" fill="#FE7A20"/>
<path fill-rule="evenodd" clip-rule="evenodd" d="M13.4546 11.8061V22.7394C13.4546 23.8373 14.35 24.7273 15.4546 24.7273C16.5592 24.7273 17.4546 23.8373 17.4546 22.7394V11.8061C17.4546 10.7082 16.5592 9.81818 15.4546 9.81818C14.35 9.81818 13.4546 10.7082 13.4546 11.8061Z" fill="white"/>
<path fill-rule="evenodd" clip-rule="evenodd" d="M6.90918 15.4586V22.7232C6.90918 23.83 7.80461 24.7273 8.90918 24.7273C10.0137 24.7273 10.9092 23.83 10.9092 22.7232V15.4586C10.9092 14.3518 10.0137 13.4545 8.90918 13.4545C7.80461 13.4545 6.90918 14.3518 6.90918 15.4586Z" fill="white"/>
<path fill-rule="evenodd" clip-rule="evenodd" d="M20 8.18674V22.7224C20 23.8296 20.8954 24.7273 22 24.7273C23.1046 24.7273 24 23.8296 24 22.7224V8.18674C24 7.07945 23.1046 6.18182 22 6.18182C20.8954 6.18182 20 7.07945 20 8.18674Z" fill="white"/>
</svg>
